<mxfile host="Electron" modified="2024-04-07T07:58:48.787Z" agent="Mozilla/5.0 (Windows NT 10.0; Win64; x64) AppleWebKit/537.36 (KHTML, like Gecko) draw.io/24.1.0 Chrome/120.0.6099.109 Electron/28.1.0 Safari/537.36" etag="r0k1Ry8a0182zK7KxeJ2" version="24.1.0" type="device">
  <diagram name="第 1 页" id="BL7LzuG3MV_UXGuW0xmM">
    <mxGraphModel dx="794" dy="511" grid="0" gridSize="10" guides="1" tooltips="1" connect="1" arrows="1" fold="1" page="1" pageScale="1" pageWidth="827" pageHeight="1169" math="0" shadow="0">
      <root>
        <mxCell id="0" />
        <mxCell id="1" parent="0" />
        <mxCell id="2k9CHMbx3Ygf67xMv2_4-54" value="" style="rounded=0;whiteSpace=wrap;html=1;strokeColor=none;fillColor=none;" vertex="1" parent="1">
          <mxGeometry x="121" y="113" width="531" height="296" as="geometry" />
        </mxCell>
        <mxCell id="2k9CHMbx3Ygf67xMv2_4-1" value="" style="endArrow=none;html=1;rounded=0;strokeWidth=2;strokeColor=#90C9E6;" edge="1" parent="1">
          <mxGeometry width="50" height="50" relative="1" as="geometry">
            <mxPoint x="180" y="363" as="sourcePoint" />
            <mxPoint x="178" y="158" as="targetPoint" />
          </mxGeometry>
        </mxCell>
        <mxCell id="2k9CHMbx3Ygf67xMv2_4-2" value="" style="endArrow=none;html=1;rounded=0;strokeWidth=2;strokeColor=#90C9E6;" edge="1" parent="1">
          <mxGeometry width="50" height="50" relative="1" as="geometry">
            <mxPoint x="302" y="361" as="sourcePoint" />
            <mxPoint x="300" y="156" as="targetPoint" />
          </mxGeometry>
        </mxCell>
        <mxCell id="2k9CHMbx3Ygf67xMv2_4-19" value="" style="curved=1;endArrow=classic;html=1;rounded=0;strokeWidth=3;fillColor=#f8cecc;strokeColor=#FB8402;" edge="1" parent="1">
          <mxGeometry width="50" height="50" relative="1" as="geometry">
            <mxPoint x="179" y="240" as="sourcePoint" />
            <mxPoint x="180" y="272" as="targetPoint" />
            <Array as="points">
              <mxPoint x="411" y="261" />
            </Array>
          </mxGeometry>
        </mxCell>
        <mxCell id="2k9CHMbx3Ygf67xMv2_4-20" value="&lt;font face=&quot;Verdana&quot;&gt;&lt;i&gt;&lt;b&gt;Origin&lt;/b&gt;&lt;/i&gt;&lt;/font&gt;" style="text;html=1;align=center;verticalAlign=middle;whiteSpace=wrap;rounded=0;" vertex="1" parent="1">
          <mxGeometry x="150" y="133" width="60" height="30" as="geometry" />
        </mxCell>
        <mxCell id="2k9CHMbx3Ygf67xMv2_4-21" value="&lt;font face=&quot;Verdana&quot;&gt;&lt;i&gt;&lt;b&gt;Target&lt;/b&gt;&lt;/i&gt;&lt;/font&gt;" style="text;html=1;align=center;verticalAlign=middle;whiteSpace=wrap;rounded=0;" vertex="1" parent="1">
          <mxGeometry x="270" y="132" width="60" height="30" as="geometry" />
        </mxCell>
        <mxCell id="2k9CHMbx3Ygf67xMv2_4-22" value="&lt;font color=&quot;#990000&quot; face=&quot;Verdana&quot;&gt;&lt;b&gt;Start&lt;/b&gt;&lt;/font&gt;" style="text;html=1;align=center;verticalAlign=middle;whiteSpace=wrap;rounded=0;" vertex="1" parent="1">
          <mxGeometry x="125" y="205" width="60" height="30" as="geometry" />
        </mxCell>
        <mxCell id="2k9CHMbx3Ygf67xMv2_4-23" value="&lt;font color=&quot;#990000&quot; face=&quot;Verdana&quot;&gt;&lt;b&gt;Wait&lt;/b&gt;&lt;/font&gt;" style="text;html=1;align=center;verticalAlign=middle;whiteSpace=wrap;rounded=0;" vertex="1" parent="1">
          <mxGeometry x="125" y="283" width="60" height="30" as="geometry" />
        </mxCell>
        <mxCell id="2k9CHMbx3Ygf67xMv2_4-24" value="&lt;font color=&quot;#990000&quot; face=&quot;Verdana&quot;&gt;&lt;b&gt;Post&lt;/b&gt;&lt;/font&gt;" style="text;html=1;align=center;verticalAlign=middle;whiteSpace=wrap;rounded=0;" vertex="1" parent="1">
          <mxGeometry x="303" y="180" width="60" height="30" as="geometry" />
        </mxCell>
        <mxCell id="2k9CHMbx3Ygf67xMv2_4-25" value="&lt;font color=&quot;#990000&quot; face=&quot;Verdana&quot;&gt;&lt;b&gt;Complete&lt;/b&gt;&lt;/font&gt;" style="text;html=1;align=center;verticalAlign=middle;whiteSpace=wrap;rounded=0;" vertex="1" parent="1">
          <mxGeometry x="301" y="309" width="95" height="30" as="geometry" />
        </mxCell>
        <mxCell id="2k9CHMbx3Ygf67xMv2_4-26" value="" style="endArrow=none;dashed=1;html=1;rounded=0;entryX=0.217;entryY=0.5;entryDx=0;entryDy=0;entryPerimeter=0;strokeColor=#FFB703;strokeWidth=2;" edge="1" parent="1" target="2k9CHMbx3Ygf67xMv2_4-24">
          <mxGeometry width="50" height="50" relative="1" as="geometry">
            <mxPoint x="175" y="220" as="sourcePoint" />
            <mxPoint x="225" y="170" as="targetPoint" />
          </mxGeometry>
        </mxCell>
        <mxCell id="2k9CHMbx3Ygf67xMv2_4-27" value="" style="endArrow=none;dashed=1;html=1;rounded=0;strokeColor=#FFB703;strokeWidth=2;" edge="1" parent="1">
          <mxGeometry width="50" height="50" relative="1" as="geometry">
            <mxPoint x="175" y="298" as="sourcePoint" />
            <mxPoint x="313" y="323" as="targetPoint" />
          </mxGeometry>
        </mxCell>
        <mxCell id="2k9CHMbx3Ygf67xMv2_4-28" value="&lt;font face=&quot;Verdana&quot;&gt;&lt;b style=&quot;&quot;&gt;（a）Active Target Mode&lt;/b&gt;&lt;/font&gt;" style="text;html=1;align=center;verticalAlign=middle;whiteSpace=wrap;rounded=0;" vertex="1" parent="1">
          <mxGeometry x="146" y="366" width="193" height="30" as="geometry" />
        </mxCell>
        <mxCell id="2k9CHMbx3Ygf67xMv2_4-40" value="" style="endArrow=none;html=1;rounded=0;strokeWidth=2;strokeColor=#90C9E6;" edge="1" parent="1">
          <mxGeometry width="50" height="50" relative="1" as="geometry">
            <mxPoint x="484" y="363" as="sourcePoint" />
            <mxPoint x="482" y="158" as="targetPoint" />
          </mxGeometry>
        </mxCell>
        <mxCell id="2k9CHMbx3Ygf67xMv2_4-41" value="" style="endArrow=none;html=1;rounded=0;strokeWidth=2;strokeColor=#90C9E6;" edge="1" parent="1">
          <mxGeometry width="50" height="50" relative="1" as="geometry">
            <mxPoint x="606" y="361" as="sourcePoint" />
            <mxPoint x="604" y="156" as="targetPoint" />
          </mxGeometry>
        </mxCell>
        <mxCell id="2k9CHMbx3Ygf67xMv2_4-42" value="" style="curved=1;endArrow=classic;html=1;rounded=0;strokeWidth=3;fillColor=#f8cecc;strokeColor=#FB8402;" edge="1" parent="1">
          <mxGeometry width="50" height="50" relative="1" as="geometry">
            <mxPoint x="483" y="240" as="sourcePoint" />
            <mxPoint x="484" y="272" as="targetPoint" />
            <Array as="points">
              <mxPoint x="715" y="261" />
            </Array>
          </mxGeometry>
        </mxCell>
        <mxCell id="2k9CHMbx3Ygf67xMv2_4-43" value="&lt;font face=&quot;Verdana&quot;&gt;&lt;i&gt;&lt;b&gt;Origin&lt;/b&gt;&lt;/i&gt;&lt;/font&gt;" style="text;html=1;align=center;verticalAlign=middle;whiteSpace=wrap;rounded=0;" vertex="1" parent="1">
          <mxGeometry x="454" y="133" width="60" height="30" as="geometry" />
        </mxCell>
        <mxCell id="2k9CHMbx3Ygf67xMv2_4-44" value="&lt;font face=&quot;Verdana&quot;&gt;&lt;i&gt;&lt;b&gt;Target&lt;/b&gt;&lt;/i&gt;&lt;/font&gt;" style="text;html=1;align=center;verticalAlign=middle;whiteSpace=wrap;rounded=0;" vertex="1" parent="1">
          <mxGeometry x="574" y="132" width="60" height="30" as="geometry" />
        </mxCell>
        <mxCell id="2k9CHMbx3Ygf67xMv2_4-45" value="&lt;font color=&quot;#990000&quot; face=&quot;Verdana&quot;&gt;&lt;b&gt;Lock&lt;/b&gt;&lt;/font&gt;" style="text;html=1;align=center;verticalAlign=middle;whiteSpace=wrap;rounded=0;" vertex="1" parent="1">
          <mxGeometry x="421" y="205" width="60" height="30" as="geometry" />
        </mxCell>
        <mxCell id="2k9CHMbx3Ygf67xMv2_4-46" value="&lt;font color=&quot;#990000&quot; face=&quot;Verdana&quot;&gt;&lt;b&gt;Unlock&lt;/b&gt;&lt;/font&gt;" style="text;html=1;align=center;verticalAlign=middle;whiteSpace=wrap;rounded=0;" vertex="1" parent="1">
          <mxGeometry x="421" y="283" width="60" height="30" as="geometry" />
        </mxCell>
        <mxCell id="2k9CHMbx3Ygf67xMv2_4-51" value="&lt;font face=&quot;Verdana&quot;&gt;&lt;b style=&quot;&quot;&gt;（b）Passive Target Mode&lt;/b&gt;&lt;/font&gt;" style="text;html=1;align=center;verticalAlign=middle;whiteSpace=wrap;rounded=0;" vertex="1" parent="1">
          <mxGeometry x="450" y="366" width="193" height="30" as="geometry" />
        </mxCell>
        <mxCell id="2k9CHMbx3Ygf67xMv2_4-52" value="" style="ellipse;whiteSpace=wrap;html=1;aspect=fixed;fillColor=#FFB703;strokeColor=#FFB703;" vertex="1" parent="1">
          <mxGeometry x="475.5" y="212.5" width="13.5" height="13.5" as="geometry" />
        </mxCell>
        <mxCell id="2k9CHMbx3Ygf67xMv2_4-53" value="" style="ellipse;whiteSpace=wrap;html=1;aspect=fixed;fillColor=#FFB703;strokeColor=#FFB703;" vertex="1" parent="1">
          <mxGeometry x="477.25" y="291.25" width="13.5" height="13.5" as="geometry" />
        </mxCell>
      </root>
    </mxGraphModel>
  </diagram>
</mxfile>
